<?xml version="1.0" encoding="utf-8" standalone="no"?>
<!DOCTYPE svg PUBLIC "-//W3C//DTD SVG 1.1//EN"
  "http://www.w3.org/Graphics/SVG/1.1/DTD/svg11.dtd">
<svg xmlns:xlink="http://www.w3.org/1999/xlink" width="432pt" height="144pt" viewBox="0 0 432 144" xmlns="http://www.w3.org/2000/svg" version="1.1">
 <metadata>
  <rdf:RDF xmlns:dc="http://purl.org/dc/elements/1.1/" xmlns:cc="http://creativecommons.org/ns#" xmlns:rdf="http://www.w3.org/1999/02/22-rdf-syntax-ns#">
   <cc:Work>
    <dc:type rdf:resource="http://purl.org/dc/dcmitype/StillImage"/>
    <dc:date>2025-02-21T20:51:18.768967</dc:date>
    <dc:format>image/svg+xml</dc:format>
    <dc:creator>
     <cc:Agent>
      <dc:title>Matplotlib v3.7.2, https://matplotlib.org/</dc:title>
     </cc:Agent>
    </dc:creator>
   </cc:Work>
  </rdf:RDF>
 </metadata>
 <defs>
  <style type="text/css">*{stroke-linejoin: round; stroke-linecap: butt}</style>
 </defs>
 <g id="figure_1">
  <g id="patch_1">
   <path d="M 0 144 
L 432 144 
L 432 0 
L 0 0 
z
" style="fill: #ffffff"/>
  </g>
  <g id="axes_1">
   <g id="patch_2">
    <path d="M 28.39 79.36 
L 141.12 79.36 
L 141.12 21.64 
L 28.39 21.64 
z
" style="fill: #ffffff"/>
   </g>
   <g id="patch_3">
    <path d="M 32.416071 79.36 
L 40.468214 79.36 
L 40.468214 24.388571 
L 32.416071 24.388571 
z
" clip-path="url(#p569d14dd5d)" style="fill: #1f77b4"/>
   </g>
   <g id="patch_4">
    <path d="M 48.520357 79.36 
L 56.5725 79.36 
L 56.5725 50.041905 
L 48.520357 50.041905 
z
" clip-path="url(#p569d14dd5d)" style="fill: #1f77b4"/>
   </g>
   <g id="patch_5">
    <path d="M 64.624643 79.36 
L 72.676786 79.36 
L 72.676786 79.36 
L 64.624643 79.36 
z
" clip-path="url(#p569d14dd5d)" style="fill: #1f77b4"/>
   </g>
   <g id="patch_6">
    <path d="M 80.728929 79.36 
L 88.781071 79.36 
L 88.781071 79.36 
L 80.728929 79.36 
z
" clip-path="url(#p569d14dd5d)" style="fill: #1f77b4"/>
   </g>
   <g id="patch_7">
    <path d="M 96.833214 79.36 
L 104.885357 79.36 
L 104.885357 79.36 
L 96.833214 79.36 
z
" clip-path="url(#p569d14dd5d)" style="fill: #1f77b4"/>
   </g>
   <g id="patch_8">
    <path d="M 112.9375 79.36 
L 120.989643 79.36 
L 120.989643 71.021637 
L 112.9375 71.021637 
z
" clip-path="url(#p569d14dd5d)" style="fill: #1f77b4"/>
   </g>
   <g id="patch_9">
    <path d="M 129.041786 79.36 
L 137.093929 79.36 
L 137.093929 49.58381 
L 129.041786 49.58381 
z
" clip-path="url(#p569d14dd5d)" style="fill: #1f77b4"/>
   </g>
   <g id="patch_10">
    <path d="M 32.416071 79.36 
L 40.468214 79.36 
L 40.468214 79.36 
L 32.416071 79.36 
z
" clip-path="url(#p569d14dd5d)" style="fill: #ff7f0e"/>
   </g>
   <g id="patch_11">
    <path d="M 48.520357 79.36 
L 56.5725 79.36 
L 56.5725 79.36 
L 48.520357 79.36 
z
" clip-path="url(#p569d14dd5d)" style="fill: #ff7f0e"/>
   </g>
   <g id="patch_12">
    <path d="M 64.624643 79.36 
L 72.676786 79.36 
L 72.676786 76.306032 
L 64.624643 76.306032 
z
" clip-path="url(#p569d14dd5d)" style="fill: #ff7f0e"/>
   </g>
   <g id="patch_13">
    <path d="M 80.728929 79.36 
L 88.781071 79.36 
L 88.781071 42.712381 
L 80.728929 42.712381 
z
" clip-path="url(#p569d14dd5d)" style="fill: #ff7f0e"/>
   </g>
   <g id="patch_14">
    <path d="M 96.833214 79.36 
L 104.885357 79.36 
L 104.885357 45.372289 
L 96.833214 45.372289 
z
" clip-path="url(#p569d14dd5d)" style="fill: #ff7f0e"/>
   </g>
   <g id="patch_15">
    <path d="M 112.9375 71.021637 
L 120.989643 71.021637 
L 120.989643 64.536244 
L 112.9375 64.536244 
z
" clip-path="url(#p569d14dd5d)" style="fill: #ff7f0e"/>
   </g>
   <g id="patch_16">
    <path d="M 129.041786 79.36 
L 137.093929 79.36 
L 137.093929 79.36 
L 129.041786 79.36 
z
" clip-path="url(#p569d14dd5d)" style="fill: #ff7f0e"/>
   </g>
   <g id="patch_17">
    <path d="M 32.416071 79.36 
L 40.468214 79.36 
L 40.468214 79.36 
L 32.416071 79.36 
z
" clip-path="url(#p569d14dd5d)" style="fill: #2ca02c"/>
   </g>
   <g id="patch_18">
    <path d="M 48.520357 50.041905 
L 56.5725 50.041905 
L 56.5725 26.387532 
L 48.520357 26.387532 
z
" clip-path="url(#p569d14dd5d)" style="fill: #2ca02c"/>
   </g>
   <g id="patch_19">
    <path d="M 64.624643 76.306032 
L 72.676786 76.306032 
L 72.676786 70.808889 
L 64.624643 70.808889 
z
" clip-path="url(#p569d14dd5d)" style="fill: #2ca02c"/>
   </g>
   <g id="patch_20">
    <path d="M 80.728929 79.36 
L 88.781071 79.36 
L 88.781071 79.36 
L 80.728929 79.36 
z
" clip-path="url(#p569d14dd5d)" style="fill: #2ca02c"/>
   </g>
   <g id="patch_21">
    <path d="M 96.833214 79.36 
L 104.885357 79.36 
L 104.885357 79.36 
L 96.833214 79.36 
z
" clip-path="url(#p569d14dd5d)" style="fill: #2ca02c"/>
   </g>
   <g id="patch_22">
    <path d="M 112.9375 64.536244 
L 120.989643 64.536244 
L 120.989643 44.771236 
L 112.9375 44.771236 
z
" clip-path="url(#p569d14dd5d)" style="fill: #2ca02c"/>
   </g>
   <g id="patch_23">
    <path d="M 129.041786 49.58381 
L 137.093929 49.58381 
L 137.093929 24.388571 
L 129.041786 24.388571 
z
" clip-path="url(#p569d14dd5d)" style="fill: #2ca02c"/>
   </g>
   <g id="patch_24">
    <path d="M 32.416071 79.36 
L 40.468214 79.36 
L 40.468214 79.36 
L 32.416071 79.36 
z
" clip-path="url(#p569d14dd5d)" style="fill: #d62728"/>
   </g>
   <g id="patch_25">
    <path d="M 48.520357 26.387532 
L 56.5725 26.387532 
L 56.5725 24.388571 
L 48.520357 24.388571 
z
" clip-path="url(#p569d14dd5d)" style="fill: #d62728"/>
   </g>
   <g id="patch_26">
    <path d="M 64.624643 70.808889 
L 72.676786 70.808889 
L 72.676786 39.353016 
L 64.624643 39.353016 
z
" clip-path="url(#p569d14dd5d)" style="fill: #d62728"/>
   </g>
   <g id="patch_27">
    <path d="M 80.728929 42.712381 
L 88.781071 42.712381 
L 88.781071 38.279201 
L 80.728929 38.279201 
z
" clip-path="url(#p569d14dd5d)" style="fill: #d62728"/>
   </g>
   <g id="patch_28">
    <path d="M 96.833214 45.372289 
L 104.885357 45.372289 
L 104.885357 45.076743 
L 96.833214 45.076743 
z
" clip-path="url(#p569d14dd5d)" style="fill: #d62728"/>
   </g>
   <g id="patch_29">
    <path d="M 112.9375 44.771236 
L 120.989643 44.771236 
L 120.989643 35.506388 
L 112.9375 35.506388 
z
" clip-path="url(#p569d14dd5d)" style="fill: #d62728"/>
   </g>
   <g id="patch_30">
    <path d="M 129.041786 79.36 
L 137.093929 79.36 
L 137.093929 79.36 
L 129.041786 79.36 
z
" clip-path="url(#p569d14dd5d)" style="fill: #d62728"/>
   </g>
   <g id="patch_31">
    <path d="M 32.416071 79.36 
L 40.468214 79.36 
L 40.468214 79.36 
L 32.416071 79.36 
z
" clip-path="url(#p569d14dd5d)" style="fill: #9467bd"/>
   </g>
   <g id="patch_32">
    <path d="M 48.520357 79.36 
L 56.5725 79.36 
L 56.5725 79.36 
L 48.520357 79.36 
z
" clip-path="url(#p569d14dd5d)" style="fill: #9467bd"/>
   </g>
   <g id="patch_33">
    <path d="M 64.624643 39.353016 
L 72.676786 39.353016 
L 72.676786 36.299048 
L 64.624643 36.299048 
z
" clip-path="url(#p569d14dd5d)" style="fill: #9467bd"/>
   </g>
   <g id="patch_34">
    <path d="M 80.728929 38.279201 
L 88.781071 38.279201 
L 88.781071 36.801475 
L 80.728929 36.801475 
z
" clip-path="url(#p569d14dd5d)" style="fill: #9467bd"/>
   </g>
   <g id="patch_35">
    <path d="M 96.833214 45.076743 
L 104.885357 45.076743 
L 104.885357 26.457389 
L 96.833214 26.457389 
z
" clip-path="url(#p569d14dd5d)" style="fill: #9467bd"/>
   </g>
   <g id="patch_36">
    <path d="M 112.9375 35.506388 
L 120.989643 35.506388 
L 120.989643 24.388571 
L 112.9375 24.388571 
z
" clip-path="url(#p569d14dd5d)" style="fill: #9467bd"/>
   </g>
   <g id="patch_37">
    <path d="M 129.041786 79.36 
L 137.093929 79.36 
L 137.093929 79.36 
L 129.041786 79.36 
z
" clip-path="url(#p569d14dd5d)" style="fill: #9467bd"/>
   </g>
   <g id="patch_38">
    <path d="M 32.416071 79.36 
L 40.468214 79.36 
L 40.468214 79.36 
L 32.416071 79.36 
z
" clip-path="url(#p569d14dd5d)" style="fill: #8c564b"/>
   </g>
   <g id="patch_39">
    <path d="M 48.520357 79.36 
L 56.5725 79.36 
L 56.5725 79.36 
L 48.520357 79.36 
z
" clip-path="url(#p569d14dd5d)" style="fill: #8c564b"/>
   </g>
   <g id="patch_40">
    <path d="M 64.624643 36.299048 
L 72.676786 36.299048 
L 72.676786 24.388571 
L 64.624643 24.388571 
z
" clip-path="url(#p569d14dd5d)" style="fill: #8c564b"/>
   </g>
   <g id="patch_41">
    <path d="M 80.728929 36.801475 
L 88.781071 36.801475 
L 88.781071 24.388571 
L 80.728929 24.388571 
z
" clip-path="url(#p569d14dd5d)" style="fill: #8c564b"/>
   </g>
   <g id="patch_42">
    <path d="M 96.833214 26.457389 
L 104.885357 26.457389 
L 104.885357 24.388571 
L 96.833214 24.388571 
z
" clip-path="url(#p569d14dd5d)" style="fill: #8c564b"/>
   </g>
   <g id="patch_43">
    <path d="M 112.9375 79.36 
L 120.989643 79.36 
L 120.989643 79.36 
L 112.9375 79.36 
z
" clip-path="url(#p569d14dd5d)" style="fill: #8c564b"/>
   </g>
   <g id="patch_44">
    <path d="M 129.041786 79.36 
L 137.093929 79.36 
L 137.093929 79.36 
L 129.041786 79.36 
z
" clip-path="url(#p569d14dd5d)" style="fill: #8c564b"/>
   </g>
   <g id="matplotlib.axis_1">
    <g id="xtick_1">
     <g id="line2d_1">
      <defs>
       <path id="m8b9b3c3200" d="M 0 0 
L 0 3.5 
" style="stroke: #000000; stroke-width: 0.8"/>
      </defs>
      <g>
       <use xlink:href="#m8b9b3c3200" x="36.442143" y="79.36" style="stroke: #000000; stroke-width: 0.8"/>
      </g>
     </g>
     <g id="text_1">
      <!-- Apr -->
      <g transform="translate(38.649643 100.2) rotate(-90) scale(0.08 -0.08)">
       <defs>
        <path id="DejaVuSans-41" d="M 2188 4044 
L 1331 1722 
L 3047 1722 
L 2188 4044 
z
M 1831 4666 
L 2547 4666 
L 4325 0 
L 3669 0 
L 3244 1197 
L 1141 1197 
L 716 0 
L 50 0 
L 1831 4666 
z
" transform="scale(0.015625)"/>
        <path id="DejaVuSans-70" d="M 1159 525 
L 1159 -1331 
L 581 -1331 
L 581 3500 
L 1159 3500 
L 1159 2969 
Q 1341 3281 1617 3432 
Q 1894 3584 2278 3584 
Q 2916 3584 3314 3078 
Q 3713 2572 3713 1747 
Q 3713 922 3314 415 
Q 2916 -91 2278 -91 
Q 1894 -91 1617 61 
Q 1341 213 1159 525 
z
M 3116 1747 
Q 3116 2381 2855 2742 
Q 2594 3103 2138 3103 
Q 1681 3103 1420 2742 
Q 1159 2381 1159 1747 
Q 1159 1113 1420 752 
Q 1681 391 2138 391 
Q 2594 391 2855 752 
Q 3116 1113 3116 1747 
z
" transform="scale(0.015625)"/>
        <path id="DejaVuSans-72" d="M 2631 2963 
Q 2534 3019 2420 3045 
Q 2306 3072 2169 3072 
Q 1681 3072 1420 2755 
Q 1159 2438 1159 1844 
L 1159 0 
L 581 0 
L 581 3500 
L 1159 3500 
L 1159 2956 
Q 1341 3275 1631 3429 
Q 1922 3584 2338 3584 
Q 2397 3584 2469 3576 
Q 2541 3569 2628 3553 
L 2631 2963 
z
" transform="scale(0.015625)"/>
       </defs>
       <use xlink:href="#DejaVuSans-41"/>
       <use xlink:href="#DejaVuSans-70" x="68.408203"/>
       <use xlink:href="#DejaVuSans-72" x="131.884766"/>
      </g>
     </g>
    </g>
    <g id="xtick_2">
     <g id="line2d_2">
      <g>
       <use xlink:href="#m8b9b3c3200" x="52.546429" y="79.36" style="stroke: #000000; stroke-width: 0.8"/>
      </g>
     </g>
     <g id="text_2">
      <!-- May -->
      <g transform="translate(54.753929 102.9) rotate(-90) scale(0.08 -0.08)">
       <defs>
        <path id="DejaVuSans-4d" d="M 628 4666 
L 1569 4666 
L 2759 1491 
L 3956 4666 
L 4897 4666 
L 4897 0 
L 4281 0 
L 4281 4097 
L 3078 897 
L 2444 897 
L 1241 4097 
L 1241 0 
L 628 0 
L 628 4666 
z
" transform="scale(0.015625)"/>
        <path id="DejaVuSans-61" d="M 2194 1759 
Q 1497 1759 1228 1600 
Q 959 1441 959 1056 
Q 959 750 1161 570 
Q 1363 391 1709 391 
Q 2188 391 2477 730 
Q 2766 1069 2766 1631 
L 2766 1759 
L 2194 1759 
z
M 3341 1997 
L 3341 0 
L 2766 0 
L 2766 531 
Q 2569 213 2275 61 
Q 1981 -91 1556 -91 
Q 1019 -91 701 211 
Q 384 513 384 1019 
Q 384 1609 779 1909 
Q 1175 2209 1959 2209 
L 2766 2209 
L 2766 2266 
Q 2766 2663 2505 2880 
Q 2244 3097 1772 3097 
Q 1472 3097 1187 3025 
Q 903 2953 641 2809 
L 641 3341 
Q 956 3463 1253 3523 
Q 1550 3584 1831 3584 
Q 2591 3584 2966 3190 
Q 3341 2797 3341 1997 
z
" transform="scale(0.015625)"/>
        <path id="DejaVuSans-79" d="M 2059 -325 
Q 1816 -950 1584 -1140 
Q 1353 -1331 966 -1331 
L 506 -1331 
L 506 -850 
L 844 -850 
Q 1081 -850 1212 -737 
Q 1344 -625 1503 -206 
L 1606 56 
L 191 3500 
L 800 3500 
L 1894 763 
L 2988 3500 
L 3597 3500 
L 2059 -325 
z
" transform="scale(0.015625)"/>
       </defs>
       <use xlink:href="#DejaVuSans-4d"/>
       <use xlink:href="#DejaVuSans-61" x="86.279297"/>
       <use xlink:href="#DejaVuSans-79" x="147.558594"/>
      </g>
     </g>
    </g>
    <g id="xtick_3">
     <g id="line2d_3">
      <g>
       <use xlink:href="#m8b9b3c3200" x="68.650714" y="79.36" style="stroke: #000000; stroke-width: 0.8"/>
      </g>
     </g>
     <g id="text_3">
      <!-- Jun -->
      <g transform="translate(70.858214 98.86) rotate(-90) scale(0.08 -0.08)">
       <defs>
        <path id="DejaVuSans-4a" d="M 628 4666 
L 1259 4666 
L 1259 325 
Q 1259 -519 939 -900 
Q 619 -1281 -91 -1281 
L -331 -1281 
L -331 -750 
L -134 -750 
Q 284 -750 456 -515 
Q 628 -281 628 325 
L 628 4666 
z
" transform="scale(0.015625)"/>
        <path id="DejaVuSans-75" d="M 544 1381 
L 544 3500 
L 1119 3500 
L 1119 1403 
Q 1119 906 1312 657 
Q 1506 409 1894 409 
Q 2359 409 2629 706 
Q 2900 1003 2900 1516 
L 2900 3500 
L 3475 3500 
L 3475 0 
L 2900 0 
L 2900 538 
Q 2691 219 2414 64 
Q 2138 -91 1772 -91 
Q 1169 -91 856 284 
Q 544 659 544 1381 
z
M 1991 3584 
L 1991 3584 
z
" transform="scale(0.015625)"/>
        <path id="DejaVuSans-6e" d="M 3513 2113 
L 3513 0 
L 2938 0 
L 2938 2094 
Q 2938 2591 2744 2837 
Q 2550 3084 2163 3084 
Q 1697 3084 1428 2787 
Q 1159 2491 1159 1978 
L 1159 0 
L 581 0 
L 581 3500 
L 1159 3500 
L 1159 2956 
Q 1366 3272 1645 3428 
Q 1925 3584 2291 3584 
Q 2894 3584 3203 3211 
Q 3513 2838 3513 2113 
z
" transform="scale(0.015625)"/>
       </defs>
       <use xlink:href="#DejaVuSans-4a"/>
       <use xlink:href="#DejaVuSans-75" x="29.492188"/>
       <use xlink:href="#DejaVuSans-6e" x="92.871094"/>
      </g>
     </g>
    </g>
    <g id="xtick_4">
     <g id="line2d_4">
      <g>
       <use xlink:href="#m8b9b3c3200" x="84.755" y="79.36" style="stroke: #000000; stroke-width: 0.8"/>
      </g>
     </g>
     <g id="text_4">
      <!-- Jul -->
      <g transform="translate(86.9625 96.0125) rotate(-90) scale(0.08 -0.08)">
       <defs>
        <path id="DejaVuSans-6c" d="M 603 4863 
L 1178 4863 
L 1178 0 
L 603 0 
L 603 4863 
z
" transform="scale(0.015625)"/>
       </defs>
       <use xlink:href="#DejaVuSans-4a"/>
       <use xlink:href="#DejaVuSans-75" x="29.492188"/>
       <use xlink:href="#DejaVuSans-6c" x="92.871094"/>
      </g>
     </g>
    </g>
    <g id="xtick_5">
     <g id="line2d_5">
      <g>
       <use xlink:href="#m8b9b3c3200" x="100.859286" y="79.36" style="stroke: #000000; stroke-width: 0.8"/>
      </g>
     </g>
     <g id="text_5">
      <!-- Aug -->
      <g transform="translate(103.066786 101.98125) rotate(-90) scale(0.08 -0.08)">
       <defs>
        <path id="DejaVuSans-67" d="M 2906 1791 
Q 2906 2416 2648 2759 
Q 2391 3103 1925 3103 
Q 1463 3103 1205 2759 
Q 947 2416 947 1791 
Q 947 1169 1205 825 
Q 1463 481 1925 481 
Q 2391 481 2648 825 
Q 2906 1169 2906 1791 
z
M 3481 434 
Q 3481 -459 3084 -895 
Q 2688 -1331 1869 -1331 
Q 1566 -1331 1297 -1286 
Q 1028 -1241 775 -1147 
L 775 -588 
Q 1028 -725 1275 -790 
Q 1522 -856 1778 -856 
Q 2344 -856 2625 -561 
Q 2906 -266 2906 331 
L 2906 616 
Q 2728 306 2450 153 
Q 2172 0 1784 0 
Q 1141 0 747 490 
Q 353 981 353 1791 
Q 353 2603 747 3093 
Q 1141 3584 1784 3584 
Q 2172 3584 2450 3431 
Q 2728 3278 2906 2969 
L 2906 3500 
L 3481 3500 
L 3481 434 
z
" transform="scale(0.015625)"/>
       </defs>
       <use xlink:href="#DejaVuSans-41"/>
       <use xlink:href="#DejaVuSans-75" x="68.408203"/>
       <use xlink:href="#DejaVuSans-67" x="131.787109"/>
      </g>
     </g>
    </g>
    <g id="xtick_6">
     <g id="line2d_6">
      <g>
       <use xlink:href="#m8b9b3c3200" x="116.963571" y="79.36" style="stroke: #000000; stroke-width: 0.8"/>
      </g>
     </g>
     <g id="text_6">
      <!-- Sep -->
      <g transform="translate(119.171071 101.44) rotate(-90) scale(0.08 -0.08)">
       <defs>
        <path id="DejaVuSans-53" d="M 3425 4513 
L 3425 3897 
Q 3066 4069 2747 4153 
Q 2428 4238 2131 4238 
Q 1616 4238 1336 4038 
Q 1056 3838 1056 3469 
Q 1056 3159 1242 3001 
Q 1428 2844 1947 2747 
L 2328 2669 
Q 3034 2534 3370 2195 
Q 3706 1856 3706 1288 
Q 3706 609 3251 259 
Q 2797 -91 1919 -91 
Q 1588 -91 1214 -16 
Q 841 59 441 206 
L 441 856 
Q 825 641 1194 531 
Q 1563 422 1919 422 
Q 2459 422 2753 634 
Q 3047 847 3047 1241 
Q 3047 1584 2836 1778 
Q 2625 1972 2144 2069 
L 1759 2144 
Q 1053 2284 737 2584 
Q 422 2884 422 3419 
Q 422 4038 858 4394 
Q 1294 4750 2059 4750 
Q 2388 4750 2728 4690 
Q 3069 4631 3425 4513 
z
" transform="scale(0.015625)"/>
        <path id="DejaVuSans-65" d="M 3597 1894 
L 3597 1613 
L 953 1613 
Q 991 1019 1311 708 
Q 1631 397 2203 397 
Q 2534 397 2845 478 
Q 3156 559 3463 722 
L 3463 178 
Q 3153 47 2828 -22 
Q 2503 -91 2169 -91 
Q 1331 -91 842 396 
Q 353 884 353 1716 
Q 353 2575 817 3079 
Q 1281 3584 2069 3584 
Q 2775 3584 3186 3129 
Q 3597 2675 3597 1894 
z
M 3022 2063 
Q 3016 2534 2758 2815 
Q 2500 3097 2075 3097 
Q 1594 3097 1305 2825 
Q 1016 2553 972 2059 
L 3022 2063 
z
" transform="scale(0.015625)"/>
       </defs>
       <use xlink:href="#DejaVuSans-53"/>
       <use xlink:href="#DejaVuSans-65" x="63.476562"/>
       <use xlink:href="#DejaVuSans-70" x="125"/>
      </g>
     </g>
    </g>
    <g id="xtick_7">
     <g id="line2d_7">
      <g>
       <use xlink:href="#m8b9b3c3200" x="133.067857" y="79.36" style="stroke: #000000; stroke-width: 0.8"/>
      </g>
     </g>
     <g id="text_7">
      <!-- Oct -->
      <g transform="translate(135.275357 100.1925) rotate(-90) scale(0.08 -0.08)">
       <defs>
        <path id="DejaVuSans-4f" d="M 2522 4238 
Q 1834 4238 1429 3725 
Q 1025 3213 1025 2328 
Q 1025 1447 1429 934 
Q 1834 422 2522 422 
Q 3209 422 3611 934 
Q 4013 1447 4013 2328 
Q 4013 3213 3611 3725 
Q 3209 4238 2522 4238 
z
M 2522 4750 
Q 3503 4750 4090 4092 
Q 4678 3434 4678 2328 
Q 4678 1225 4090 567 
Q 3503 -91 2522 -91 
Q 1538 -91 948 565 
Q 359 1222 359 2328 
Q 359 3434 948 4092 
Q 1538 4750 2522 4750 
z
" transform="scale(0.015625)"/>
        <path id="DejaVuSans-63" d="M 3122 3366 
L 3122 2828 
Q 2878 2963 2633 3030 
Q 2388 3097 2138 3097 
Q 1578 3097 1268 2742 
Q 959 2388 959 1747 
Q 959 1106 1268 751 
Q 1578 397 2138 397 
Q 2388 397 2633 464 
Q 2878 531 3122 666 
L 3122 134 
Q 2881 22 2623 -34 
Q 2366 -91 2075 -91 
Q 1284 -91 818 406 
Q 353 903 353 1747 
Q 353 2603 823 3093 
Q 1294 3584 2113 3584 
Q 2378 3584 2631 3529 
Q 2884 3475 3122 3366 
z
" transform="scale(0.015625)"/>
        <path id="DejaVuSans-74" d="M 1172 4494 
L 1172 3500 
L 2356 3500 
L 2356 3053 
L 1172 3053 
L 1172 1153 
Q 1172 725 1289 603 
Q 1406 481 1766 481 
L 2356 481 
L 2356 0 
L 1766 0 
Q 1100 0 847 248 
Q 594 497 594 1153 
L 594 3053 
L 172 3053 
L 172 3500 
L 594 3500 
L 594 4494 
L 1172 4494 
z
" transform="scale(0.015625)"/>
       </defs>
       <use xlink:href="#DejaVuSans-4f"/>
       <use xlink:href="#DejaVuSans-63" x="78.710938"/>
       <use xlink:href="#DejaVuSans-74" x="133.691406"/>
      </g>
     </g>
    </g>
    <g id="text_8">
     <!-- Month -->
     <g transform="translate(69.083906 114.498437) scale(0.1 -0.1)">
      <defs>
       <path id="DejaVuSans-6f" d="M 1959 3097 
Q 1497 3097 1228 2736 
Q 959 2375 959 1747 
Q 959 1119 1226 758 
Q 1494 397 1959 397 
Q 2419 397 2687 759 
Q 2956 1122 2956 1747 
Q 2956 2369 2687 2733 
Q 2419 3097 1959 3097 
z
M 1959 3584 
Q 2709 3584 3137 3096 
Q 3566 2609 3566 1747 
Q 3566 888 3137 398 
Q 2709 -91 1959 -91 
Q 1206 -91 779 398 
Q 353 888 353 1747 
Q 353 2609 779 3096 
Q 1206 3584 1959 3584 
z
" transform="scale(0.015625)"/>
       <path id="DejaVuSans-68" d="M 3513 2113 
L 3513 0 
L 2938 0 
L 2938 2094 
Q 2938 2591 2744 2837 
Q 2550 3084 2163 3084 
Q 1697 3084 1428 2787 
Q 1159 2491 1159 1978 
L 1159 0 
L 581 0 
L 581 4863 
L 1159 4863 
L 1159 2956 
Q 1366 3272 1645 3428 
Q 1925 3584 2291 3584 
Q 2894 3584 3203 3211 
Q 3513 2838 3513 2113 
z
" transform="scale(0.015625)"/>
      </defs>
      <use xlink:href="#DejaVuSans-4d"/>
      <use xlink:href="#DejaVuSans-6f" x="86.279297"/>
      <use xlink:href="#DejaVuSans-6e" x="147.460938"/>
      <use xlink:href="#DejaVuSans-74" x="210.839844"/>
      <use xlink:href="#DejaVuSans-68" x="250.048828"/>
     </g>
    </g>
   </g>
   <g id="matplotlib.axis_2">
    <g id="ytick_1">
     <g id="line2d_8">
      <defs>
       <path id="mfaed8df1ff" d="M 0 0 
L -3.5 0 
" style="stroke: #000000; stroke-width: 0.8"/>
      </defs>
      <g>
       <use xlink:href="#mfaed8df1ff" x="28.39" y="79.36" style="stroke: #000000; stroke-width: 0.8"/>
      </g>
     </g>
     <g id="text_9">
      <!-- 0.0 -->
      <g transform="translate(8.6675 82.399375) scale(0.08 -0.08)">
       <defs>
        <path id="DejaVuSans-30" d="M 2034 4250 
Q 1547 4250 1301 3770 
Q 1056 3291 1056 2328 
Q 1056 1369 1301 889 
Q 1547 409 2034 409 
Q 2525 409 2770 889 
Q 3016 1369 3016 2328 
Q 3016 3291 2770 3770 
Q 2525 4250 2034 4250 
z
M 2034 4750 
Q 2819 4750 3233 4129 
Q 3647 3509 3647 2328 
Q 3647 1150 3233 529 
Q 2819 -91 2034 -91 
Q 1250 -91 836 529 
Q 422 1150 422 2328 
Q 422 3509 836 4129 
Q 1250 4750 2034 4750 
z
" transform="scale(0.015625)"/>
        <path id="DejaVuSans-2e" d="M 684 794 
L 1344 794 
L 1344 0 
L 684 0 
L 684 794 
z
" transform="scale(0.015625)"/>
       </defs>
       <use xlink:href="#DejaVuSans-30"/>
       <use xlink:href="#DejaVuSans-2e" x="63.623047"/>
       <use xlink:href="#DejaVuSans-30" x="95.410156"/>
      </g>
     </g>
    </g>
    <g id="ytick_2">
     <g id="line2d_9">
      <g>
       <use xlink:href="#mfaed8df1ff" x="28.39" y="51.874286" style="stroke: #000000; stroke-width: 0.8"/>
      </g>
     </g>
     <g id="text_10">
      <!-- 0.5 -->
      <g transform="translate(8.6675 54.913661) scale(0.08 -0.08)">
       <defs>
        <path id="DejaVuSans-35" d="M 691 4666 
L 3169 4666 
L 3169 4134 
L 1269 4134 
L 1269 2991 
Q 1406 3038 1543 3061 
Q 1681 3084 1819 3084 
Q 2600 3084 3056 2656 
Q 3513 2228 3513 1497 
Q 3513 744 3044 326 
Q 2575 -91 1722 -91 
Q 1428 -91 1123 -41 
Q 819 9 494 109 
L 494 744 
Q 775 591 1075 516 
Q 1375 441 1709 441 
Q 2250 441 2565 725 
Q 2881 1009 2881 1497 
Q 2881 1984 2565 2268 
Q 2250 2553 1709 2553 
Q 1456 2553 1204 2497 
Q 953 2441 691 2322 
L 691 4666 
z
" transform="scale(0.015625)"/>
       </defs>
       <use xlink:href="#DejaVuSans-30"/>
       <use xlink:href="#DejaVuSans-2e" x="63.623047"/>
       <use xlink:href="#DejaVuSans-35" x="95.410156"/>
      </g>
     </g>
    </g>
    <g id="ytick_3">
     <g id="line2d_10">
      <g>
       <use xlink:href="#mfaed8df1ff" x="28.39" y="24.388571" style="stroke: #000000; stroke-width: 0.8"/>
      </g>
     </g>
     <g id="text_11">
      <!-- 1.0 -->
      <g transform="translate(8.6675 27.427946) scale(0.08 -0.08)">
       <defs>
        <path id="DejaVuSans-31" d="M 794 531 
L 1825 531 
L 1825 4091 
L 703 3866 
L 703 4441 
L 1819 4666 
L 2450 4666 
L 2450 531 
L 3481 531 
L 3481 0 
L 794 0 
L 794 531 
z
" transform="scale(0.015625)"/>
       </defs>
       <use xlink:href="#DejaVuSans-31"/>
       <use xlink:href="#DejaVuSans-2e" x="63.623047"/>
       <use xlink:href="#DejaVuSans-30" x="95.410156"/>
      </g>
     </g>
    </g>
   </g>
   <g id="patch_45">
    <path d="M 28.39 79.36 
L 28.39 21.64 
" style="fill: none; stroke: #000000; stroke-width: 0.8; stroke-linejoin: miter; stroke-linecap: square"/>
   </g>
   <g id="patch_46">
    <path d="M 141.12 79.36 
L 141.12 21.64 
" style="fill: none; stroke: #000000; stroke-width: 0.8; stroke-linejoin: miter; stroke-linecap: square"/>
   </g>
   <g id="patch_47">
    <path d="M 28.39 79.36 
L 141.12 79.36 
" style="fill: none; stroke: #000000; stroke-width: 0.8; stroke-linejoin: miter; stroke-linecap: square"/>
   </g>
   <g id="patch_48">
    <path d="M 28.39 21.64 
L 141.12 21.64 
" style="fill: none; stroke: #000000; stroke-width: 0.8; stroke-linejoin: miter; stroke-linecap: square"/>
   </g>
   <g id="text_12">
    <!-- Cluster frequency by Month -->
    <g transform="translate(29.239375 15.64) scale(0.08 -0.08)">
     <defs>
      <path id="DejaVuSans-43" d="M 4122 4306 
L 4122 3641 
Q 3803 3938 3442 4084 
Q 3081 4231 2675 4231 
Q 1875 4231 1450 3742 
Q 1025 3253 1025 2328 
Q 1025 1406 1450 917 
Q 1875 428 2675 428 
Q 3081 428 3442 575 
Q 3803 722 4122 1019 
L 4122 359 
Q 3791 134 3420 21 
Q 3050 -91 2638 -91 
Q 1578 -91 968 557 
Q 359 1206 359 2328 
Q 359 3453 968 4101 
Q 1578 4750 2638 4750 
Q 3056 4750 3426 4639 
Q 3797 4528 4122 4306 
z
" transform="scale(0.015625)"/>
      <path id="DejaVuSans-73" d="M 2834 3397 
L 2834 2853 
Q 2591 2978 2328 3040 
Q 2066 3103 1784 3103 
Q 1356 3103 1142 2972 
Q 928 2841 928 2578 
Q 928 2378 1081 2264 
Q 1234 2150 1697 2047 
L 1894 2003 
Q 2506 1872 2764 1633 
Q 3022 1394 3022 966 
Q 3022 478 2636 193 
Q 2250 -91 1575 -91 
Q 1294 -91 989 -36 
Q 684 19 347 128 
L 347 722 
Q 666 556 975 473 
Q 1284 391 1588 391 
Q 1994 391 2212 530 
Q 2431 669 2431 922 
Q 2431 1156 2273 1281 
Q 2116 1406 1581 1522 
L 1381 1569 
Q 847 1681 609 1914 
Q 372 2147 372 2553 
Q 372 3047 722 3315 
Q 1072 3584 1716 3584 
Q 2034 3584 2315 3537 
Q 2597 3491 2834 3397 
z
" transform="scale(0.015625)"/>
      <path id="DejaVuSans-20" transform="scale(0.015625)"/>
      <path id="DejaVuSans-66" d="M 2375 4863 
L 2375 4384 
L 1825 4384 
Q 1516 4384 1395 4259 
Q 1275 4134 1275 3809 
L 1275 3500 
L 2222 3500 
L 2222 3053 
L 1275 3053 
L 1275 0 
L 697 0 
L 697 3053 
L 147 3053 
L 147 3500 
L 697 3500 
L 697 3744 
Q 697 4328 969 4595 
Q 1241 4863 1831 4863 
L 2375 4863 
z
" transform="scale(0.015625)"/>
      <path id="DejaVuSans-71" d="M 947 1747 
Q 947 1113 1208 752 
Q 1469 391 1925 391 
Q 2381 391 2643 752 
Q 2906 1113 2906 1747 
Q 2906 2381 2643 2742 
Q 2381 3103 1925 3103 
Q 1469 3103 1208 2742 
Q 947 2381 947 1747 
z
M 2906 525 
Q 2725 213 2448 61 
Q 2172 -91 1784 -91 
Q 1150 -91 751 415 
Q 353 922 353 1747 
Q 353 2572 751 3078 
Q 1150 3584 1784 3584 
Q 2172 3584 2448 3432 
Q 2725 3281 2906 2969 
L 2906 3500 
L 3481 3500 
L 3481 -1331 
L 2906 -1331 
L 2906 525 
z
" transform="scale(0.015625)"/>
      <path id="DejaVuSans-62" d="M 3116 1747 
Q 3116 2381 2855 2742 
Q 2594 3103 2138 3103 
Q 1681 3103 1420 2742 
Q 1159 2381 1159 1747 
Q 1159 1113 1420 752 
Q 1681 391 2138 391 
Q 2594 391 2855 752 
Q 3116 1113 3116 1747 
z
M 1159 2969 
Q 1341 3281 1617 3432 
Q 1894 3584 2278 3584 
Q 2916 3584 3314 3078 
Q 3713 2572 3713 1747 
Q 3713 922 3314 415 
Q 2916 -91 2278 -91 
Q 1894 -91 1617 61 
Q 1341 213 1159 525 
L 1159 0 
L 581 0 
L 581 4863 
L 1159 4863 
L 1159 2969 
z
" transform="scale(0.015625)"/>
     </defs>
     <use xlink:href="#DejaVuSans-43"/>
     <use xlink:href="#DejaVuSans-6c" x="69.824219"/>
     <use xlink:href="#DejaVuSans-75" x="97.607422"/>
     <use xlink:href="#DejaVuSans-73" x="160.986328"/>
     <use xlink:href="#DejaVuSans-74" x="213.085938"/>
     <use xlink:href="#DejaVuSans-65" x="252.294922"/>
     <use xlink:href="#DejaVuSans-72" x="313.818359"/>
     <use xlink:href="#DejaVuSans-20" x="354.931641"/>
     <use xlink:href="#DejaVuSans-66" x="386.71875"/>
     <use xlink:href="#DejaVuSans-72" x="421.923828"/>
     <use xlink:href="#DejaVuSans-65" x="460.787109"/>
     <use xlink:href="#DejaVuSans-71" x="522.310547"/>
     <use xlink:href="#DejaVuSans-75" x="585.787109"/>
     <use xlink:href="#DejaVuSans-65" x="649.166016"/>
     <use xlink:href="#DejaVuSans-6e" x="710.689453"/>
     <use xlink:href="#DejaVuSans-63" x="774.068359"/>
     <use xlink:href="#DejaVuSans-79" x="829.048828"/>
     <use xlink:href="#DejaVuSans-20" x="888.228516"/>
     <use xlink:href="#DejaVuSans-62" x="920.015625"/>
     <use xlink:href="#DejaVuSans-79" x="983.492188"/>
     <use xlink:href="#DejaVuSans-20" x="1042.671875"/>
     <use xlink:href="#DejaVuSans-4d" x="1074.458984"/>
     <use xlink:href="#DejaVuSans-6f" x="1160.738281"/>
     <use xlink:href="#DejaVuSans-6e" x="1221.919922"/>
     <use xlink:href="#DejaVuSans-74" x="1285.298828"/>
     <use xlink:href="#DejaVuSans-68" x="1324.507812"/>
    </g>
   </g>
   <g id="legend_1">
    <g id="patch_49">
     <path d="M 33.99 75.36 
L 64.68 75.36 
Q 66.28 75.36 66.28 73.76 
L 66.28 4.105 
Q 66.28 2.505 64.68 2.505 
L 33.99 2.505 
Q 32.39 2.505 32.39 4.105 
L 32.39 73.76 
Q 32.39 75.36 33.99 75.36 
z
" style="fill: #ffffff; opacity: 0.8; stroke: #cccccc; stroke-linejoin: miter"/>
    </g>
    <g id="patch_50">
     <path d="M 35.59 11.78375 
L 51.59 11.78375 
L 51.59 6.18375 
L 35.59 6.18375 
z
" style="fill: #1f77b4"/>
    </g>
    <g id="text_13">
     <!-- 1 -->
     <g transform="translate(57.99 11.78375) scale(0.08 -0.08)">
      <use xlink:href="#DejaVuSans-31"/>
     </g>
    </g>
    <g id="patch_51">
     <path d="M 35.59 23.52625 
L 51.59 23.52625 
L 51.59 17.92625 
L 35.59 17.92625 
z
" style="fill: #ff7f0e"/>
    </g>
    <g id="text_14">
     <!-- 2 -->
     <g transform="translate(57.99 23.52625) scale(0.08 -0.08)">
      <defs>
       <path id="DejaVuSans-32" d="M 1228 531 
L 3431 531 
L 3431 0 
L 469 0 
L 469 531 
Q 828 903 1448 1529 
Q 2069 2156 2228 2338 
Q 2531 2678 2651 2914 
Q 2772 3150 2772 3378 
Q 2772 3750 2511 3984 
Q 2250 4219 1831 4219 
Q 1534 4219 1204 4116 
Q 875 4013 500 3803 
L 500 4441 
Q 881 4594 1212 4672 
Q 1544 4750 1819 4750 
Q 2544 4750 2975 4387 
Q 3406 4025 3406 3419 
Q 3406 3131 3298 2873 
Q 3191 2616 2906 2266 
Q 2828 2175 2409 1742 
Q 1991 1309 1228 531 
z
" transform="scale(0.015625)"/>
      </defs>
      <use xlink:href="#DejaVuSans-32"/>
     </g>
    </g>
    <g id="patch_52">
     <path d="M 35.59 35.26875 
L 51.59 35.26875 
L 51.59 29.66875 
L 35.59 29.66875 
z
" style="fill: #2ca02c"/>
    </g>
    <g id="text_15">
     <!-- 3 -->
     <g transform="translate(57.99 35.26875) scale(0.08 -0.08)">
      <defs>
       <path id="DejaVuSans-33" d="M 2597 2516 
Q 3050 2419 3304 2112 
Q 3559 1806 3559 1356 
Q 3559 666 3084 287 
Q 2609 -91 1734 -91 
Q 1441 -91 1130 -33 
Q 819 25 488 141 
L 488 750 
Q 750 597 1062 519 
Q 1375 441 1716 441 
Q 2309 441 2620 675 
Q 2931 909 2931 1356 
Q 2931 1769 2642 2001 
Q 2353 2234 1838 2234 
L 1294 2234 
L 1294 2753 
L 1863 2753 
Q 2328 2753 2575 2939 
Q 2822 3125 2822 3475 
Q 2822 3834 2567 4026 
Q 2313 4219 1838 4219 
Q 1578 4219 1281 4162 
Q 984 4106 628 3988 
L 628 4550 
Q 988 4650 1302 4700 
Q 1616 4750 1894 4750 
Q 2613 4750 3031 4423 
Q 3450 4097 3450 3541 
Q 3450 3153 3228 2886 
Q 3006 2619 2597 2516 
z
" transform="scale(0.015625)"/>
      </defs>
      <use xlink:href="#DejaVuSans-33"/>
     </g>
    </g>
    <g id="patch_53">
     <path d="M 35.59 47.01125 
L 51.59 47.01125 
L 51.59 41.41125 
L 35.59 41.41125 
z
" style="fill: #d62728"/>
    </g>
    <g id="text_16">
     <!-- 4 -->
     <g transform="translate(57.99 47.01125) scale(0.08 -0.08)">
      <defs>
       <path id="DejaVuSans-34" d="M 2419 4116 
L 825 1625 
L 2419 1625 
L 2419 4116 
z
M 2253 4666 
L 3047 4666 
L 3047 1625 
L 3713 1625 
L 3713 1100 
L 3047 1100 
L 3047 0 
L 2419 0 
L 2419 1100 
L 313 1100 
L 313 1709 
L 2253 4666 
z
" transform="scale(0.015625)"/>
      </defs>
      <use xlink:href="#DejaVuSans-34"/>
     </g>
    </g>
    <g id="patch_54">
     <path d="M 35.59 58.75375 
L 51.59 58.75375 
L 51.59 53.15375 
L 35.59 53.15375 
z
" style="fill: #9467bd"/>
    </g>
    <g id="text_17">
     <!-- 5 -->
     <g transform="translate(57.99 58.75375) scale(0.08 -0.08)">
      <use xlink:href="#DejaVuSans-35"/>
     </g>
    </g>
    <g id="patch_55">
     <path d="M 35.59 70.49625 
L 51.59 70.49625 
L 51.59 64.89625 
L 35.59 64.89625 
z
" style="fill: #8c564b"/>
    </g>
    <g id="text_18">
     <!-- 6 -->
     <g transform="translate(57.99 70.49625) scale(0.08 -0.08)">
      <defs>
       <path id="DejaVuSans-36" d="M 2113 2584 
Q 1688 2584 1439 2293 
Q 1191 2003 1191 1497 
Q 1191 994 1439 701 
Q 1688 409 2113 409 
Q 2538 409 2786 701 
Q 3034 994 3034 1497 
Q 3034 2003 2786 2293 
Q 2538 2584 2113 2584 
z
M 3366 4563 
L 3366 3988 
Q 3128 4100 2886 4159 
Q 2644 4219 2406 4219 
Q 1781 4219 1451 3797 
Q 1122 3375 1075 2522 
Q 1259 2794 1537 2939 
Q 1816 3084 2150 3084 
Q 2853 3084 3261 2657 
Q 3669 2231 3669 1497 
Q 3669 778 3244 343 
Q 2819 -91 2113 -91 
Q 1303 -91 875 529 
Q 447 1150 447 2328 
Q 447 3434 972 4092 
Q 1497 4750 2381 4750 
Q 2619 4750 2861 4703 
Q 3103 4656 3366 4563 
z
" transform="scale(0.015625)"/>
      </defs>
      <use xlink:href="#DejaVuSans-36"/>
     </g>
    </g>
   </g>
  </g>
  <g id="axes_2">
   <g id="patch_56">
    <path d="M 169.51 79.36 
L 282.24 79.36 
L 282.24 21.64 
L 169.51 21.64 
z
" style="fill: #ffffff"/>
   </g>
   <g id="patch_57">
    <path d="M 174.207083 79.36 
L 183.60125 79.36 
L 183.60125 70.370961 
L 174.207083 70.370961 
z
" clip-path="url(#p9220d3047e)" style="fill: #1f77b4"/>
   </g>
   <g id="patch_58">
    <path d="M 192.995417 79.36 
L 202.389583 79.36 
L 202.389583 70.198095 
L 192.995417 70.198095 
z
" clip-path="url(#p9220d3047e)" style="fill: #1f77b4"/>
   </g>
   <g id="patch_59">
    <path d="M 211.78375 79.36 
L 221.177917 79.36 
L 221.177917 73.535213 
L 211.78375 73.535213 
z
" clip-path="url(#p9220d3047e)" style="fill: #1f77b4"/>
   </g>
   <g id="patch_60">
    <path d="M 230.572083 79.36 
L 239.96625 79.36 
L 239.96625 68.431945 
L 230.572083 68.431945 
z
" clip-path="url(#p9220d3047e)" style="fill: #1f77b4"/>
   </g>
   <g id="patch_61">
    <path d="M 249.360417 79.36 
L 258.754583 79.36 
L 258.754583 69.722152 
L 249.360417 69.722152 
z
" clip-path="url(#p9220d3047e)" style="fill: #1f77b4"/>
   </g>
   <g id="patch_62">
    <path d="M 268.14875 79.36 
L 277.542917 79.36 
L 277.542917 71.275966 
L 268.14875 71.275966 
z
" clip-path="url(#p9220d3047e)" style="fill: #1f77b4"/>
   </g>
   <g id="patch_63">
    <path d="M 174.207083 79.36 
L 183.60125 79.36 
L 183.60125 79.36 
L 174.207083 79.36 
z
" clip-path="url(#p9220d3047e)" style="fill: #ff7f0e"/>
   </g>
   <g id="patch_64">
    <path d="M 192.995417 70.198095 
L 202.389583 70.198095 
L 202.389583 53.51034 
L 192.995417 53.51034 
z
" clip-path="url(#p9220d3047e)" style="fill: #ff7f0e"/>
   </g>
   <g id="patch_65">
    <path d="M 211.78375 73.535213 
L 221.177917 73.535213 
L 221.177917 66.618278 
L 211.78375 66.618278 
z
" clip-path="url(#p9220d3047e)" style="fill: #ff7f0e"/>
   </g>
   <g id="patch_66">
    <path d="M 230.572083 68.431945 
L 239.96625 68.431945 
L 239.96625 47.569294 
L 230.572083 47.569294 
z
" clip-path="url(#p9220d3047e)" style="fill: #ff7f0e"/>
   </g>
   <g id="patch_67">
    <path d="M 249.360417 69.722152 
L 258.754583 69.722152 
L 258.754583 46.519926 
L 249.360417 46.519926 
z
" clip-path="url(#p9220d3047e)" style="fill: #ff7f0e"/>
   </g>
   <g id="patch_68">
    <path d="M 268.14875 71.275966 
L 277.542917 71.275966 
L 277.542917 47.99395 
L 268.14875 47.99395 
z
" clip-path="url(#p9220d3047e)" style="fill: #ff7f0e"/>
   </g>
   <g id="patch_69">
    <path d="M 174.207083 70.370961 
L 183.60125 70.370961 
L 183.60125 58.616065 
L 174.207083 58.616065 
z
" clip-path="url(#p9220d3047e)" style="fill: #2ca02c"/>
   </g>
   <g id="patch_70">
    <path d="M 192.995417 53.51034 
L 202.389583 53.51034 
L 202.389583 41.403537 
L 192.995417 41.403537 
z
" clip-path="url(#p9220d3047e)" style="fill: #2ca02c"/>
   </g>
   <g id="patch_71">
    <path d="M 211.78375 66.618278 
L 221.177917 66.618278 
L 221.177917 55.332753 
L 211.78375 55.332753 
z
" clip-path="url(#p9220d3047e)" style="fill: #2ca02c"/>
   </g>
   <g id="patch_72">
    <path d="M 230.572083 47.569294 
L 239.96625 47.569294 
L 239.96625 37.965852 
L 230.572083 37.965852 
z
" clip-path="url(#p9220d3047e)" style="fill: #2ca02c"/>
   </g>
   <g id="patch_73">
    <path d="M 249.360417 46.519926 
L 258.754583 46.519926 
L 258.754583 37.95295 
L 249.360417 37.95295 
z
" clip-path="url(#p9220d3047e)" style="fill: #2ca02c"/>
   </g>
   <g id="patch_74">
    <path d="M 268.14875 47.99395 
L 277.542917 47.99395 
L 277.542917 37.969748 
L 268.14875 37.969748 
z
" clip-path="url(#p9220d3047e)" style="fill: #2ca02c"/>
   </g>
   <g id="patch_75">
    <path d="M 174.207083 58.616065 
L 183.60125 58.616065 
L 183.60125 56.195939 
L 174.207083 56.195939 
z
" clip-path="url(#p9220d3047e)" style="fill: #d62728"/>
   </g>
   <g id="patch_76">
    <path d="M 192.995417 41.403537 
L 202.389583 41.403537 
L 202.389583 27.333469 
L 192.995417 27.333469 
z
" clip-path="url(#p9220d3047e)" style="fill: #d62728"/>
   </g>
   <g id="patch_77">
    <path d="M 211.78375 55.332753 
L 221.177917 55.332753 
L 221.177917 49.507966 
L 211.78375 49.507966 
z
" clip-path="url(#p9220d3047e)" style="fill: #d62728"/>
   </g>
   <g id="patch_78">
    <path d="M 230.572083 37.965852 
L 239.96625 37.965852 
L 239.96625 28.031256 
L 230.572083 28.031256 
z
" clip-path="url(#p9220d3047e)" style="fill: #d62728"/>
   </g>
   <g id="patch_79">
    <path d="M 249.360417 37.95295 
L 258.754583 37.95295 
L 258.754583 25.459443 
L 249.360417 25.459443 
z
" clip-path="url(#p9220d3047e)" style="fill: #d62728"/>
   </g>
   <g id="patch_80">
    <path d="M 268.14875 37.969748 
L 277.542917 37.969748 
L 277.542917 30.209076 
L 268.14875 30.209076 
z
" clip-path="url(#p9220d3047e)" style="fill: #d62728"/>
   </g>
   <g id="patch_81">
    <path d="M 174.207083 56.195939 
L 183.60125 56.195939 
L 183.60125 39.946523 
L 174.207083 39.946523 
z
" clip-path="url(#p9220d3047e)" style="fill: #9467bd"/>
   </g>
   <g id="patch_82">
    <path d="M 192.995417 27.333469 
L 202.389583 27.333469 
L 202.389583 24.388571 
L 192.995417 24.388571 
z
" clip-path="url(#p9220d3047e)" style="fill: #9467bd"/>
   </g>
   <g id="patch_83">
    <path d="M 211.78375 49.507966 
L 221.177917 49.507966 
L 221.177917 37.130293 
L 211.78375 37.130293 
z
" clip-path="url(#p9220d3047e)" style="fill: #9467bd"/>
   </g>
   <g id="patch_84">
    <path d="M 230.572083 28.031256 
L 239.96625 28.031256 
L 239.96625 24.388571 
L 230.572083 24.388571 
z
" clip-path="url(#p9220d3047e)" style="fill: #9467bd"/>
   </g>
   <g id="patch_85">
    <path d="M 249.360417 25.459443 
L 258.754583 25.459443 
L 258.754583 24.388571 
L 249.360417 24.388571 
z
" clip-path="url(#p9220d3047e)" style="fill: #9467bd"/>
   </g>
   <g id="patch_86">
    <path d="M 268.14875 30.209076 
L 277.542917 30.209076 
L 277.542917 26.975462 
L 268.14875 26.975462 
z
" clip-path="url(#p9220d3047e)" style="fill: #9467bd"/>
   </g>
   <g id="patch_87">
    <path d="M 174.207083 39.946523 
L 183.60125 39.946523 
L 183.60125 24.388571 
L 174.207083 24.388571 
z
" clip-path="url(#p9220d3047e)" style="fill: #8c564b"/>
   </g>
   <g id="patch_88">
    <path d="M 192.995417 79.36 
L 202.389583 79.36 
L 202.389583 79.36 
L 192.995417 79.36 
z
" clip-path="url(#p9220d3047e)" style="fill: #8c564b"/>
   </g>
   <g id="patch_89">
    <path d="M 211.78375 37.130293 
L 221.177917 37.130293 
L 221.177917 24.388571 
L 211.78375 24.388571 
z
" clip-path="url(#p9220d3047e)" style="fill: #8c564b"/>
   </g>
   <g id="patch_90">
    <path d="M 230.572083 79.36 
L 239.96625 79.36 
L 239.96625 79.36 
L 230.572083 79.36 
z
" clip-path="url(#p9220d3047e)" style="fill: #8c564b"/>
   </g>
   <g id="patch_91">
    <path d="M 249.360417 79.36 
L 258.754583 79.36 
L 258.754583 79.36 
L 249.360417 79.36 
z
" clip-path="url(#p9220d3047e)" style="fill: #8c564b"/>
   </g>
   <g id="patch_92">
    <path d="M 268.14875 26.975462 
L 277.542917 26.975462 
L 277.542917 24.388571 
L 268.14875 24.388571 
z
" clip-path="url(#p9220d3047e)" style="fill: #8c564b"/>
   </g>
   <g id="matplotlib.axis_3">
    <g id="xtick_8">
     <g id="line2d_11">
      <g>
       <use xlink:href="#m8b9b3c3200" x="178.904167" y="79.36" style="stroke: #000000; stroke-width: 0.8"/>
      </g>
     </g>
     <g id="text_19">
      <!-- 2016 -->
      <g transform="translate(181.111667 106.72) rotate(-90) scale(0.08 -0.08)">
       <use xlink:href="#DejaVuSans-32"/>
       <use xlink:href="#DejaVuSans-30" x="63.623047"/>
       <use xlink:href="#DejaVuSans-31" x="127.246094"/>
       <use xlink:href="#DejaVuSans-36" x="190.869141"/>
      </g>
     </g>
    </g>
    <g id="xtick_9">
     <g id="line2d_12">
      <g>
       <use xlink:href="#m8b9b3c3200" x="197.6925" y="79.36" style="stroke: #000000; stroke-width: 0.8"/>
      </g>
     </g>
     <g id="text_20">
      <!-- 2017 -->
      <g transform="translate(199.9 106.72) rotate(-90) scale(0.08 -0.08)">
       <defs>
        <path id="DejaVuSans-37" d="M 525 4666 
L 3525 4666 
L 3525 4397 
L 1831 0 
L 1172 0 
L 2766 4134 
L 525 4134 
L 525 4666 
z
" transform="scale(0.015625)"/>
       </defs>
       <use xlink:href="#DejaVuSans-32"/>
       <use xlink:href="#DejaVuSans-30" x="63.623047"/>
       <use xlink:href="#DejaVuSans-31" x="127.246094"/>
       <use xlink:href="#DejaVuSans-37" x="190.869141"/>
      </g>
     </g>
    </g>
    <g id="xtick_10">
     <g id="line2d_13">
      <g>
       <use xlink:href="#m8b9b3c3200" x="216.480833" y="79.36" style="stroke: #000000; stroke-width: 0.8"/>
      </g>
     </g>
     <g id="text_21">
      <!-- 2018 -->
      <g transform="translate(218.688333 106.72) rotate(-90) scale(0.08 -0.08)">
       <defs>
        <path id="DejaVuSans-38" d="M 2034 2216 
Q 1584 2216 1326 1975 
Q 1069 1734 1069 1313 
Q 1069 891 1326 650 
Q 1584 409 2034 409 
Q 2484 409 2743 651 
Q 3003 894 3003 1313 
Q 3003 1734 2745 1975 
Q 2488 2216 2034 2216 
z
M 1403 2484 
Q 997 2584 770 2862 
Q 544 3141 544 3541 
Q 544 4100 942 4425 
Q 1341 4750 2034 4750 
Q 2731 4750 3128 4425 
Q 3525 4100 3525 3541 
Q 3525 3141 3298 2862 
Q 3072 2584 2669 2484 
Q 3125 2378 3379 2068 
Q 3634 1759 3634 1313 
Q 3634 634 3220 271 
Q 2806 -91 2034 -91 
Q 1263 -91 848 271 
Q 434 634 434 1313 
Q 434 1759 690 2068 
Q 947 2378 1403 2484 
z
M 1172 3481 
Q 1172 3119 1398 2916 
Q 1625 2713 2034 2713 
Q 2441 2713 2670 2916 
Q 2900 3119 2900 3481 
Q 2900 3844 2670 4047 
Q 2441 4250 2034 4250 
Q 1625 4250 1398 4047 
Q 1172 3844 1172 3481 
z
" transform="scale(0.015625)"/>
       </defs>
       <use xlink:href="#DejaVuSans-32"/>
       <use xlink:href="#DejaVuSans-30" x="63.623047"/>
       <use xlink:href="#DejaVuSans-31" x="127.246094"/>
       <use xlink:href="#DejaVuSans-38" x="190.869141"/>
      </g>
     </g>
    </g>
    <g id="xtick_11">
     <g id="line2d_14">
      <g>
       <use xlink:href="#m8b9b3c3200" x="235.269167" y="79.36" style="stroke: #000000; stroke-width: 0.8"/>
      </g>
     </g>
     <g id="text_22">
      <!-- 2019 -->
      <g transform="translate(237.476667 106.72) rotate(-90) scale(0.08 -0.08)">
       <defs>
        <path id="DejaVuSans-39" d="M 703 97 
L 703 672 
Q 941 559 1184 500 
Q 1428 441 1663 441 
Q 2288 441 2617 861 
Q 2947 1281 2994 2138 
Q 2813 1869 2534 1725 
Q 2256 1581 1919 1581 
Q 1219 1581 811 2004 
Q 403 2428 403 3163 
Q 403 3881 828 4315 
Q 1253 4750 1959 4750 
Q 2769 4750 3195 4129 
Q 3622 3509 3622 2328 
Q 3622 1225 3098 567 
Q 2575 -91 1691 -91 
Q 1453 -91 1209 -44 
Q 966 3 703 97 
z
M 1959 2075 
Q 2384 2075 2632 2365 
Q 2881 2656 2881 3163 
Q 2881 3666 2632 3958 
Q 2384 4250 1959 4250 
Q 1534 4250 1286 3958 
Q 1038 3666 1038 3163 
Q 1038 2656 1286 2365 
Q 1534 2075 1959 2075 
z
" transform="scale(0.015625)"/>
       </defs>
       <use xlink:href="#DejaVuSans-32"/>
       <use xlink:href="#DejaVuSans-30" x="63.623047"/>
       <use xlink:href="#DejaVuSans-31" x="127.246094"/>
       <use xlink:href="#DejaVuSans-39" x="190.869141"/>
      </g>
     </g>
    </g>
    <g id="xtick_12">
     <g id="line2d_15">
      <g>
       <use xlink:href="#m8b9b3c3200" x="254.0575" y="79.36" style="stroke: #000000; stroke-width: 0.8"/>
      </g>
     </g>
     <g id="text_23">
      <!-- 2021 -->
      <g transform="translate(256.265 106.72) rotate(-90) scale(0.08 -0.08)">
       <use xlink:href="#DejaVuSans-32"/>
       <use xlink:href="#DejaVuSans-30" x="63.623047"/>
       <use xlink:href="#DejaVuSans-32" x="127.246094"/>
       <use xlink:href="#DejaVuSans-31" x="190.869141"/>
      </g>
     </g>
    </g>
    <g id="xtick_13">
     <g id="line2d_16">
      <g>
       <use xlink:href="#m8b9b3c3200" x="272.845833" y="79.36" style="stroke: #000000; stroke-width: 0.8"/>
      </g>
     </g>
     <g id="text_24">
      <!-- 2022 -->
      <g transform="translate(275.053333 106.72) rotate(-90) scale(0.08 -0.08)">
       <use xlink:href="#DejaVuSans-32"/>
       <use xlink:href="#DejaVuSans-30" x="63.623047"/>
       <use xlink:href="#DejaVuSans-32" x="127.246094"/>
       <use xlink:href="#DejaVuSans-32" x="190.869141"/>
      </g>
     </g>
    </g>
    <g id="text_25">
     <!-- Year -->
     <g transform="translate(215.2875 118.318438) scale(0.1 -0.1)">
      <defs>
       <path id="DejaVuSans-59" d="M -13 4666 
L 666 4666 
L 1959 2747 
L 3244 4666 
L 3922 4666 
L 2272 2222 
L 2272 0 
L 1638 0 
L 1638 2222 
L -13 4666 
z
" transform="scale(0.015625)"/>
      </defs>
      <use xlink:href="#DejaVuSans-59"/>
      <use xlink:href="#DejaVuSans-65" x="47.833984"/>
      <use xlink:href="#DejaVuSans-61" x="109.357422"/>
      <use xlink:href="#DejaVuSans-72" x="170.636719"/>
     </g>
    </g>
   </g>
   <g id="matplotlib.axis_4">
    <g id="ytick_4">
     <g id="line2d_17">
      <g>
       <use xlink:href="#mfaed8df1ff" x="169.51" y="79.36" style="stroke: #000000; stroke-width: 0.8"/>
      </g>
     </g>
     <g id="text_26">
      <!-- 0.0 -->
      <g transform="translate(149.7875 82.399375) scale(0.08 -0.08)">
       <use xlink:href="#DejaVuSans-30"/>
       <use xlink:href="#DejaVuSans-2e" x="63.623047"/>
       <use xlink:href="#DejaVuSans-30" x="95.410156"/>
      </g>
     </g>
    </g>
    <g id="ytick_5">
     <g id="line2d_18">
      <g>
       <use xlink:href="#mfaed8df1ff" x="169.51" y="51.874286" style="stroke: #000000; stroke-width: 0.8"/>
      </g>
     </g>
     <g id="text_27">
      <!-- 0.5 -->
      <g transform="translate(149.7875 54.913661) scale(0.08 -0.08)">
       <use xlink:href="#DejaVuSans-30"/>
       <use xlink:href="#DejaVuSans-2e" x="63.623047"/>
       <use xlink:href="#DejaVuSans-35" x="95.410156"/>
      </g>
     </g>
    </g>
    <g id="ytick_6">
     <g id="line2d_19">
      <g>
       <use xlink:href="#mfaed8df1ff" x="169.51" y="24.388571" style="stroke: #000000; stroke-width: 0.8"/>
      </g>
     </g>
     <g id="text_28">
      <!-- 1.0 -->
      <g transform="translate(149.7875 27.427946) scale(0.08 -0.08)">
       <use xlink:href="#DejaVuSans-31"/>
       <use xlink:href="#DejaVuSans-2e" x="63.623047"/>
       <use xlink:href="#DejaVuSans-30" x="95.410156"/>
      </g>
     </g>
    </g>
   </g>
   <g id="patch_93">
    <path d="M 169.51 79.36 
L 169.51 21.64 
" style="fill: none; stroke: #000000; stroke-width: 0.8; stroke-linejoin: miter; stroke-linecap: square"/>
   </g>
   <g id="patch_94">
    <path d="M 282.24 79.36 
L 282.24 21.64 
" style="fill: none; stroke: #000000; stroke-width: 0.8; stroke-linejoin: miter; stroke-linecap: square"/>
   </g>
   <g id="patch_95">
    <path d="M 169.51 79.36 
L 282.24 79.36 
" style="fill: none; stroke: #000000; stroke-width: 0.8; stroke-linejoin: miter; stroke-linecap: square"/>
   </g>
   <g id="patch_96">
    <path d="M 169.51 21.64 
L 282.24 21.64 
" style="fill: none; stroke: #000000; stroke-width: 0.8; stroke-linejoin: miter; stroke-linecap: square"/>
   </g>
   <g id="text_29">
    <!-- Cluster frequency by Year -->
    <g transform="translate(174.42625 15.64) scale(0.08 -0.08)">
     <use xlink:href="#DejaVuSans-43"/>
     <use xlink:href="#DejaVuSans-6c" x="69.824219"/>
     <use xlink:href="#DejaVuSans-75" x="97.607422"/>
     <use xlink:href="#DejaVuSans-73" x="160.986328"/>
     <use xlink:href="#DejaVuSans-74" x="213.085938"/>
     <use xlink:href="#DejaVuSans-65" x="252.294922"/>
     <use xlink:href="#DejaVuSans-72" x="313.818359"/>
     <use xlink:href="#DejaVuSans-20" x="354.931641"/>
     <use xlink:href="#DejaVuSans-66" x="386.71875"/>
     <use xlink:href="#DejaVuSans-72" x="421.923828"/>
     <use xlink:href="#DejaVuSans-65" x="460.787109"/>
     <use xlink:href="#DejaVuSans-71" x="522.310547"/>
     <use xlink:href="#DejaVuSans-75" x="585.787109"/>
     <use xlink:href="#DejaVuSans-65" x="649.166016"/>
     <use xlink:href="#DejaVuSans-6e" x="710.689453"/>
     <use xlink:href="#DejaVuSans-63" x="774.068359"/>
     <use xlink:href="#DejaVuSans-79" x="829.048828"/>
     <use xlink:href="#DejaVuSans-20" x="888.228516"/>
     <use xlink:href="#DejaVuSans-62" x="920.015625"/>
     <use xlink:href="#DejaVuSans-79" x="983.492188"/>
     <use xlink:href="#DejaVuSans-20" x="1042.671875"/>
     <use xlink:href="#DejaVuSans-59" x="1074.458984"/>
     <use xlink:href="#DejaVuSans-65" x="1122.292969"/>
     <use xlink:href="#DejaVuSans-61" x="1183.816406"/>
     <use xlink:href="#DejaVuSans-72" x="1245.095703"/>
    </g>
   </g>
   <g id="legend_2">
    <g id="patch_97">
     <path d="M 175.11 75.36 
L 205.8 75.36 
Q 207.4 75.36 207.4 73.76 
L 207.4 4.105 
Q 207.4 2.505 205.8 2.505 
L 175.11 2.505 
Q 173.51 2.505 173.51 4.105 
L 173.51 73.76 
Q 173.51 75.36 175.11 75.36 
z
" style="fill: #ffffff; opacity: 0.8; stroke: #cccccc; stroke-linejoin: miter"/>
    </g>
    <g id="patch_98">
     <path d="M 176.71 11.78375 
L 192.71 11.78375 
L 192.71 6.18375 
L 176.71 6.18375 
z
" style="fill: #1f77b4"/>
    </g>
    <g id="text_30">
     <!-- 1 -->
     <g transform="translate(199.11 11.78375) scale(0.08 -0.08)">
      <use xlink:href="#DejaVuSans-31"/>
     </g>
    </g>
    <g id="patch_99">
     <path d="M 176.71 23.52625 
L 192.71 23.52625 
L 192.71 17.92625 
L 176.71 17.92625 
z
" style="fill: #ff7f0e"/>
    </g>
    <g id="text_31">
     <!-- 2 -->
     <g transform="translate(199.11 23.52625) scale(0.08 -0.08)">
      <use xlink:href="#DejaVuSans-32"/>
     </g>
    </g>
    <g id="patch_100">
     <path d="M 176.71 35.26875 
L 192.71 35.26875 
L 192.71 29.66875 
L 176.71 29.66875 
z
" style="fill: #2ca02c"/>
    </g>
    <g id="text_32">
     <!-- 3 -->
     <g transform="translate(199.11 35.26875) scale(0.08 -0.08)">
      <use xlink:href="#DejaVuSans-33"/>
     </g>
    </g>
    <g id="patch_101">
     <path d="M 176.71 47.01125 
L 192.71 47.01125 
L 192.71 41.41125 
L 176.71 41.41125 
z
" style="fill: #d62728"/>
    </g>
    <g id="text_33">
     <!-- 4 -->
     <g transform="translate(199.11 47.01125) scale(0.08 -0.08)">
      <use xlink:href="#DejaVuSans-34"/>
     </g>
    </g>
    <g id="patch_102">
     <path d="M 176.71 58.75375 
L 192.71 58.75375 
L 192.71 53.15375 
L 176.71 53.15375 
z
" style="fill: #9467bd"/>
    </g>
    <g id="text_34">
     <!-- 5 -->
     <g transform="translate(199.11 58.75375) scale(0.08 -0.08)">
      <use xlink:href="#DejaVuSans-35"/>
     </g>
    </g>
    <g id="patch_103">
     <path d="M 176.71 70.49625 
L 192.71 70.49625 
L 192.71 64.89625 
L 176.71 64.89625 
z
" style="fill: #8c564b"/>
    </g>
    <g id="text_35">
     <!-- 6 -->
     <g transform="translate(199.11 70.49625) scale(0.08 -0.08)">
      <use xlink:href="#DejaVuSans-36"/>
     </g>
    </g>
   </g>
  </g>
  <g id="axes_3">
   <g id="patch_104">
    <path d="M 310.63 79.36 
L 423.36 79.36 
L 423.36 21.64 
L 310.63 21.64 
z
" style="fill: #ffffff"/>
   </g>
   <g id="patch_105">
    <path d="M 324.72125 79.36 
L 352.90375 79.36 
L 352.90375 71.686905 
L 324.72125 71.686905 
z
" clip-path="url(#pe1622a5100)" style="fill: #1f77b4"/>
   </g>
   <g id="patch_106">
    <path d="M 381.08625 79.36 
L 409.26875 79.36 
L 409.26875 69.447119 
L 381.08625 69.447119 
z
" clip-path="url(#pe1622a5100)" style="fill: #1f77b4"/>
   </g>
   <g id="patch_107">
    <path d="M 324.72125 71.686905 
L 352.90375 71.686905 
L 352.90375 61.265238 
L 324.72125 61.265238 
z
" clip-path="url(#pe1622a5100)" style="fill: #ff7f0e"/>
   </g>
   <g id="patch_108">
    <path d="M 381.08625 69.447119 
L 409.26875 69.447119 
L 409.26875 49.283419 
L 381.08625 49.283419 
z
" clip-path="url(#pe1622a5100)" style="fill: #ff7f0e"/>
   </g>
   <g id="patch_109">
    <path d="M 324.72125 61.265238 
L 352.90375 61.265238 
L 352.90375 50.270952 
L 324.72125 50.270952 
z
" clip-path="url(#pe1622a5100)" style="fill: #2ca02c"/>
   </g>
   <g id="patch_110">
    <path d="M 381.08625 49.283419 
L 409.26875 49.283419 
L 409.26875 39.145246 
L 381.08625 39.145246 
z
" clip-path="url(#pe1622a5100)" style="fill: #2ca02c"/>
   </g>
   <g id="patch_111">
    <path d="M 324.72125 50.270952 
L 352.90375 50.270952 
L 352.90375 44.888333 
L 324.72125 44.888333 
z
" clip-path="url(#pe1622a5100)" style="fill: #d62728"/>
   </g>
   <g id="patch_112">
    <path d="M 381.08625 39.145246 
L 409.26875 39.145246 
L 409.26875 26.979438 
L 381.08625 26.979438 
z
" clip-path="url(#pe1622a5100)" style="fill: #d62728"/>
   </g>
   <g id="patch_113">
    <path d="M 324.72125 44.888333 
L 352.90375 44.888333 
L 352.90375 34.466667 
L 324.72125 34.466667 
z
" clip-path="url(#pe1622a5100)" style="fill: #9467bd"/>
   </g>
   <g id="patch_114">
    <path d="M 381.08625 26.979438 
L 409.26875 26.979438 
L 409.26875 24.388571 
L 381.08625 24.388571 
z
" clip-path="url(#pe1622a5100)" style="fill: #9467bd"/>
   </g>
   <g id="patch_115">
    <path d="M 324.72125 34.466667 
L 352.90375 34.466667 
L 352.90375 24.388571 
L 324.72125 24.388571 
z
" clip-path="url(#pe1622a5100)" style="fill: #8c564b"/>
   </g>
   <g id="patch_116">
    <path d="M 381.08625 79.36 
L 409.26875 79.36 
L 409.26875 79.36 
L 381.08625 79.36 
z
" clip-path="url(#pe1622a5100)" style="fill: #8c564b"/>
   </g>
   <g id="matplotlib.axis_5">
    <g id="xtick_14">
     <g id="line2d_20">
      <g>
       <use xlink:href="#m8b9b3c3200" x="338.8125" y="79.36" style="stroke: #000000; stroke-width: 0.8"/>
      </g>
     </g>
     <g id="text_36">
      <!-- Corn -->
      <g transform="translate(341.02 105.06) rotate(-90) scale(0.08 -0.08)">
       <use xlink:href="#DejaVuSans-43"/>
       <use xlink:href="#DejaVuSans-6f" x="69.824219"/>
       <use xlink:href="#DejaVuSans-72" x="131.005859"/>
       <use xlink:href="#DejaVuSans-6e" x="170.369141"/>
      </g>
     </g>
    </g>
    <g id="xtick_15">
     <g id="line2d_21">
      <g>
       <use xlink:href="#m8b9b3c3200" x="395.1775" y="79.36" style="stroke: #000000; stroke-width: 0.8"/>
      </g>
     </g>
     <g id="text_37">
      <!-- Soybean -->
      <g transform="translate(397.385 121.0425) rotate(-90) scale(0.08 -0.08)">
       <use xlink:href="#DejaVuSans-53"/>
       <use xlink:href="#DejaVuSans-6f" x="63.476562"/>
       <use xlink:href="#DejaVuSans-79" x="124.658203"/>
       <use xlink:href="#DejaVuSans-62" x="183.837891"/>
       <use xlink:href="#DejaVuSans-65" x="247.314453"/>
       <use xlink:href="#DejaVuSans-61" x="308.837891"/>
       <use xlink:href="#DejaVuSans-6e" x="370.117188"/>
      </g>
     </g>
    </g>
    <g id="text_38">
     <!-- Crop -->
     <g transform="translate(355.327031 132.640938) scale(0.1 -0.1)">
      <use xlink:href="#DejaVuSans-43"/>
      <use xlink:href="#DejaVuSans-72" x="69.824219"/>
      <use xlink:href="#DejaVuSans-6f" x="108.6875"/>
      <use xlink:href="#DejaVuSans-70" x="169.869141"/>
     </g>
    </g>
   </g>
   <g id="matplotlib.axis_6">
    <g id="ytick_7">
     <g id="line2d_22">
      <g>
       <use xlink:href="#mfaed8df1ff" x="310.63" y="79.36" style="stroke: #000000; stroke-width: 0.8"/>
      </g>
     </g>
     <g id="text_39">
      <!-- 0.0 -->
      <g transform="translate(290.9075 82.399375) scale(0.08 -0.08)">
       <use xlink:href="#DejaVuSans-30"/>
       <use xlink:href="#DejaVuSans-2e" x="63.623047"/>
       <use xlink:href="#DejaVuSans-30" x="95.410156"/>
      </g>
     </g>
    </g>
    <g id="ytick_8">
     <g id="line2d_23">
      <g>
       <use xlink:href="#mfaed8df1ff" x="310.63" y="51.874286" style="stroke: #000000; stroke-width: 0.8"/>
      </g>
     </g>
     <g id="text_40">
      <!-- 0.5 -->
      <g transform="translate(290.9075 54.913661) scale(0.08 -0.08)">
       <use xlink:href="#DejaVuSans-30"/>
       <use xlink:href="#DejaVuSans-2e" x="63.623047"/>
       <use xlink:href="#DejaVuSans-35" x="95.410156"/>
      </g>
     </g>
    </g>
    <g id="ytick_9">
     <g id="line2d_24">
      <g>
       <use xlink:href="#mfaed8df1ff" x="310.63" y="24.388571" style="stroke: #000000; stroke-width: 0.8"/>
      </g>
     </g>
     <g id="text_41">
      <!-- 1.0 -->
      <g transform="translate(290.9075 27.427946) scale(0.08 -0.08)">
       <use xlink:href="#DejaVuSans-31"/>
       <use xlink:href="#DejaVuSans-2e" x="63.623047"/>
       <use xlink:href="#DejaVuSans-30" x="95.410156"/>
      </g>
     </g>
    </g>
   </g>
   <g id="patch_117">
    <path d="M 310.63 79.36 
L 310.63 21.64 
" style="fill: none; stroke: #000000; stroke-width: 0.8; stroke-linejoin: miter; stroke-linecap: square"/>
   </g>
   <g id="patch_118">
    <path d="M 423.36 79.36 
L 423.36 21.64 
" style="fill: none; stroke: #000000; stroke-width: 0.8; stroke-linejoin: miter; stroke-linecap: square"/>
   </g>
   <g id="patch_119">
    <path d="M 310.63 79.36 
L 423.36 79.36 
" style="fill: none; stroke: #000000; stroke-width: 0.8; stroke-linejoin: miter; stroke-linecap: square"/>
   </g>
   <g id="patch_120">
    <path d="M 310.63 21.64 
L 423.36 21.64 
" style="fill: none; stroke: #000000; stroke-width: 0.8; stroke-linejoin: miter; stroke-linecap: square"/>
   </g>
   <g id="text_42">
    <!-- Cluster frequency by Crop -->
    <g transform="translate(314.681875 15.64) scale(0.08 -0.08)">
     <use xlink:href="#DejaVuSans-43"/>
     <use xlink:href="#DejaVuSans-6c" x="69.824219"/>
     <use xlink:href="#DejaVuSans-75" x="97.607422"/>
     <use xlink:href="#DejaVuSans-73" x="160.986328"/>
     <use xlink:href="#DejaVuSans-74" x="213.085938"/>
     <use xlink:href="#DejaVuSans-65" x="252.294922"/>
     <use xlink:href="#DejaVuSans-72" x="313.818359"/>
     <use xlink:href="#DejaVuSans-20" x="354.931641"/>
     <use xlink:href="#DejaVuSans-66" x="386.71875"/>
     <use xlink:href="#DejaVuSans-72" x="421.923828"/>
     <use xlink:href="#DejaVuSans-65" x="460.787109"/>
     <use xlink:href="#DejaVuSans-71" x="522.310547"/>
     <use xlink:href="#DejaVuSans-75" x="585.787109"/>
     <use xlink:href="#DejaVuSans-65" x="649.166016"/>
     <use xlink:href="#DejaVuSans-6e" x="710.689453"/>
     <use xlink:href="#DejaVuSans-63" x="774.068359"/>
     <use xlink:href="#DejaVuSans-79" x="829.048828"/>
     <use xlink:href="#DejaVuSans-20" x="888.228516"/>
     <use xlink:href="#DejaVuSans-62" x="920.015625"/>
     <use xlink:href="#DejaVuSans-79" x="983.492188"/>
     <use xlink:href="#DejaVuSans-20" x="1042.671875"/>
     <use xlink:href="#DejaVuSans-43" x="1074.458984"/>
     <use xlink:href="#DejaVuSans-72" x="1144.283203"/>
     <use xlink:href="#DejaVuSans-6f" x="1183.146484"/>
     <use xlink:href="#DejaVuSans-70" x="1244.328125"/>
    </g>
   </g>
   <g id="legend_3">
    <g id="patch_121">
     <path d="M 387.07 75.36 
L 417.76 75.36 
Q 419.36 75.36 419.36 73.76 
L 419.36 4.105 
Q 419.36 2.505 417.76 2.505 
L 387.07 2.505 
Q 385.47 2.505 385.47 4.105 
L 385.47 73.76 
Q 385.47 75.36 387.07 75.36 
z
" style="fill: #ffffff; opacity: 0.8; stroke: #cccccc; stroke-linejoin: miter"/>
    </g>
    <g id="patch_122">
     <path d="M 388.67 11.78375 
L 404.67 11.78375 
L 404.67 6.18375 
L 388.67 6.18375 
z
" style="fill: #1f77b4"/>
    </g>
    <g id="text_43">
     <!-- 1 -->
     <g transform="translate(411.07 11.78375) scale(0.08 -0.08)">
      <use xlink:href="#DejaVuSans-31"/>
     </g>
    </g>
    <g id="patch_123">
     <path d="M 388.67 23.52625 
L 404.67 23.52625 
L 404.67 17.92625 
L 388.67 17.92625 
z
" style="fill: #ff7f0e"/>
    </g>
    <g id="text_44">
     <!-- 2 -->
     <g transform="translate(411.07 23.52625) scale(0.08 -0.08)">
      <use xlink:href="#DejaVuSans-32"/>
     </g>
    </g>
    <g id="patch_124">
     <path d="M 388.67 35.26875 
L 404.67 35.26875 
L 404.67 29.66875 
L 388.67 29.66875 
z
" style="fill: #2ca02c"/>
    </g>
    <g id="text_45">
     <!-- 3 -->
     <g transform="translate(411.07 35.26875) scale(0.08 -0.08)">
      <use xlink:href="#DejaVuSans-33"/>
     </g>
    </g>
    <g id="patch_125">
     <path d="M 388.67 47.01125 
L 404.67 47.01125 
L 404.67 41.41125 
L 388.67 41.41125 
z
" style="fill: #d62728"/>
    </g>
    <g id="text_46">
     <!-- 4 -->
     <g transform="translate(411.07 47.01125) scale(0.08 -0.08)">
      <use xlink:href="#DejaVuSans-34"/>
     </g>
    </g>
    <g id="patch_126">
     <path d="M 388.67 58.75375 
L 404.67 58.75375 
L 404.67 53.15375 
L 388.67 53.15375 
z
" style="fill: #9467bd"/>
    </g>
    <g id="text_47">
     <!-- 5 -->
     <g transform="translate(411.07 58.75375) scale(0.08 -0.08)">
      <use xlink:href="#DejaVuSans-35"/>
     </g>
    </g>
    <g id="patch_127">
     <path d="M 388.67 70.49625 
L 404.67 70.49625 
L 404.67 64.89625 
L 388.67 64.89625 
z
" style="fill: #8c564b"/>
    </g>
    <g id="text_48">
     <!-- 6 -->
     <g transform="translate(411.07 70.49625) scale(0.08 -0.08)">
      <use xlink:href="#DejaVuSans-36"/>
     </g>
    </g>
   </g>
  </g>
 </g>
 <defs>
  <clipPath id="p569d14dd5d">
   <rect x="28.39" y="21.64" width="112.73" height="57.72"/>
  </clipPath>
  <clipPath id="p9220d3047e">
   <rect x="169.51" y="21.64" width="112.73" height="57.72"/>
  </clipPath>
  <clipPath id="pe1622a5100">
   <rect x="310.63" y="21.64" width="112.73" height="57.72"/>
  </clipPath>
 </defs>
</svg>
